<?xml version="1.0" encoding="utf-8"?><!--Generator: Adobe Illustrator 23.1.1, SVG Export Plug-In . SVG Version: 6.00 Build 0)--><svg version="1.1" id="Layer_1" xmlns="http://www.w3.org/2000/svg" xmlns:xlink="http://www.w3.org/1999/xlink" x="0px" y="0px" viewBox="0 0 20 18" style="enable-background:new 0 0 20 18" xml:space="preserve"><style type="text/css">.st0{fill:#FFFFFF;}</style><g><path class="st0" d="M9.6,11.6C9.6,11.6,9.6,11.6,9.6,11.6h3.8c0,0,0,0,0,0h3.3c0.2,0,0.4-0.1,0.5-0.4l2.3-7.9c0-0.2,0-0.3-0.1-0.4
		c-0.1-0.1-0.2-0.2-0.4-0.2h-5c0,0,0,0,0,0H8.9c0,0,0,0,0,0H4.3L3.7,1C3.6,0.8,3.4,0.6,3.2,0.6H0.8c-0.3,0-0.5,0.2-0.5,0.5
		s0.2,0.5,0.5,0.5h2l0.5,1.6c0,0,0,0.1,0,0.1l1.8,5.3c0,0,0,0,0,0.1l0.9,2.6c0,0,0.1,0.1,0.1,0.1l0.7,2.1c-0.8,0.2-1.4,0.9-1.4,1.8
		c0,0,0,0,0,0c0,1,0.8,1.9,1.9,1.9s1.9-0.8,1.9-1.9c0-0.3-0.1-0.6-0.2-0.9h4.9c-0.1,0.3-0.2,0.5-0.2,0.9c0,0.5,0.2,1,0.5,1.3
		c0.4,0.4,0.8,0.5,1.3,0.5c0,0,0,0,0,0c0.5,0,1-0.2,1.3-0.5c0.3-0.4,0.5-0.8,0.5-1.3c0-1-0.8-1.9-1.9-1.9c-0.1,0-0.2,0-0.3,0
		c0,0-0.1,0-0.1,0H7.9l-0.6-1.8H9.6C9.6,11.6,9.6,11.6,9.6,11.6z M14.7,15.3c0-0.5,0.4-0.9,0.9-0.9c0.5,0,0.9,0.4,0.9,0.9
		c0,0.5-0.4,0.9-0.9,0.9h0c-0.2,0-0.4-0.1-0.6-0.2C14.7,15.7,14.7,15.5,14.7,15.3C14.7,15.3,14.7,15.3,14.7,15.3z M12.9,10.6h-2.9
		L9.9,9h3.1L12.9,10.6z M13.1,8H9.8L9.7,6.3h3.6L13.1,8z M14.5,3.7h3.8l-0.5,1.7c0,0-0.1,0-0.1,0h-3.4L14.5,3.7z M14.3,6.3h3.3
		L17.1,8h-3L14.3,6.3z M14.1,9h2.8l-0.5,1.6h-2.4L14.1,9z M5.2,5.3L4.6,3.7h3.8l0.2,1.6H5.2z M6.1,8L5.5,6.3h3.2L8.8,8H6.1z
		 M7.3,14.4c0.5,0,0.9,0.4,0.9,0.9s-0.4,0.9-0.9,0.9s-0.9-0.4-0.9-0.9h0C6.5,14.8,6.8,14.4,7.3,14.4z M6.9,10.6L6.4,9h2.5l0.2,1.6
		H6.9z M9.4,3.7h4.1l-0.1,1.6H9.6L9.4,3.7z"/></g></svg>