<?xml version="1.0" encoding="utf-8"?>
<!-- Generator: Adobe Illustrator 22.1.0, SVG Export Plug-In . SVG Version: 6.00 Build 0)  -->
<svg version="1.1" xmlns="http://www.w3.org/2000/svg" xmlns:xlink="http://www.w3.org/1999/xlink" x="0px" y="0px"
	 viewBox="0 0 956.9 319.6" style="enable-background:new 0 0 956.9 319.6;" xml:space="preserve">
<style type="text/css">
	.st0{fill:#FFFFFF;}
	.st1{display:none;}
	.st2{display:inline;fill:#00FFFF;}
</style>
<g id="Layer_1">
	<g>
		<path class="st0" d="M363.8,136.4h9.7v2.5c0,6.3,3.5,8.4,7.1,8.4c3.6,0,6.9-2.2,6.9-8l0-37.6h9.7v37.7c0,11.7-8.5,16.8-16.8,16.8
			c-8.2,0-16.6-5.2-16.6-16.8V136.4z"/>
		<path class="st0" d="M438.5,100.9c15.8,0,27.7,12,27.7,27.3c0,15.8-11.9,28.1-27.7,28.1c-15.8,0-27.7-12.3-27.7-28.1
			C410.8,112.9,422.8,100.9,438.5,100.9 M438.5,147.4c9.8,0,17.7-8.1,17.7-19.2c0-10.6-7.8-18.4-17.7-18.4
			c-9.8,0-17.7,7.8-17.7,18.4C420.9,139.2,428.7,147.4,438.5,147.4"/>
		<polygon class="st0" points="480.6,101.8 512.7,101.8 512.7,110.2 490.4,110.2 490.4,124.2 508.4,124.2 508.4,132.6 490.4,132.6 
			490.4,147 513.9,147 513.9,155.4 480.6,155.4 		"/>
		<polygon class="st0" points="528.5,101.8 538.3,101.8 538.3,147 561.4,147 561.4,155.4 528.5,155.4 		"/>
		<path class="st0" d="M620.6,100.9c15.8,0,27.7,12,27.7,27.3c0,15.8-11.9,28.1-27.7,28.1c-15.8,0-27.7-12.3-27.7-28.1
			C592.9,112.9,604.8,100.9,620.6,100.9 M620.6,147.4c9.8,0,17.7-8.1,17.7-19.2c0-10.6-7.8-18.4-17.7-18.4
			c-9.8,0-17.7,7.8-17.7,18.4C602.9,139.2,610.8,147.4,620.6,147.4"/>
		<path class="st0" d="M663.9,141.6c0,0,5.8,5.7,13.4,5.7c4.1,0,7.8-2.1,7.8-6.5c0-9.6-25.3-7.9-25.3-24.4c0-8.9,7.7-15.5,18-15.5
			c10.6,0,16,5.7,16,5.7l-4.2,7.9c0,0-5.1-4.7-11.8-4.7c-4.5,0-8.1,2.6-8.1,6.4c0,9.5,25.2,7.2,25.2,24.3c0,8.5-6.5,15.7-17.7,15.7
			c-11.9,0-18.5-7.3-18.5-7.3L663.9,141.6z"/>
		<polygon class="st0" points="720.1,110.2 702.5,110.2 702.5,101.8 747.4,101.8 747.4,110.2 729.9,110.2 729.9,155.4 720.1,155.4 
					"/>
		<polygon class="st0" points="759,101.8 791.1,101.8 791.1,110.2 768.8,110.2 768.8,124.2 786.8,124.2 786.8,132.6 768.8,132.6 
			768.8,147 792.3,147 792.3,155.4 759,155.4 		"/>
		<polygon class="st0" points="807,101.8 839,101.8 839,110.2 816.7,110.2 816.7,124.2 834.7,124.2 834.7,132.6 816.7,132.6 
			816.7,147 840.2,147 840.2,155.4 807,155.4 		"/>
		<path class="st0" d="M854.9,101.8h9.7l20.3,30.9c2,3.1,4.5,8.3,4.5,8.3h0.2c0,0-0.5-5.1-0.5-8.3v-30.9h9.7v53.6H889l-20.3-30.9
			c-2-3.1-4.5-8.3-4.5-8.3h-0.2c0,0,0.5,5.1,0.5,8.3v30.9h-9.7V101.8z"/>
	</g>
	<g>
		<path class="st0" d="M365.5,181h7l7,17.8c0.8,2.1,1.8,5.3,1.8,5.3h0.1c0,0,1-3.1,1.8-5.3l7-17.8h7l2.9,35.9h-6.5l-1.5-20.1
			c-0.2-2.4-0.1-5.6-0.1-5.6H392c0,0-1.1,3.5-1.9,5.6l-5.8,13.9h-5.7l-5.8-13.9c-0.9-2.1-2-5.6-2-5.6h-0.1c0,0,0.1,3.2,0,5.6
			l-1.5,20.1h-6.5L365.5,181z"/>
		<rect x="418.3" y="181" class="st0" width="6.5" height="35.9"/>
		<path class="st0" d="M444,181h6.5l13.6,20.8c1.4,2.1,3,5.6,3,5.6h0.1c0,0-0.4-3.4-0.4-5.6V181h6.5v35.9h-6.5l-13.6-20.7
			c-1.4-2.1-3-5.6-3-5.6h-0.1c0,0,0.4,3.4,0.4,5.6v20.7H444V181z"/>
		<rect x="492.6" y="181" class="st0" width="6.5" height="35.9"/>
		<path class="st0" d="M519.2,207.7c0,0,3.9,3.8,9,3.8c2.7,0,5.2-1.4,5.2-4.4c0-6.4-17-5.3-17-16.3c0-6,5.2-10.4,12-10.4
			c7.1,0,10.7,3.8,10.7,3.8l-2.8,5.3c0,0-3.4-3.1-7.9-3.1c-3,0-5.4,1.8-5.4,4.3c0,6.4,16.9,4.8,16.9,16.3c0,5.7-4.4,10.5-11.8,10.5
			c-8,0-12.4-4.9-12.4-4.9L519.2,207.7z"/>
		<polygon class="st0" points="563.9,186.6 552.2,186.6 552.2,181 582.3,181 582.3,186.6 570.5,186.6 570.5,216.9 563.9,216.9 		"/>
		<path class="st0" d="M597.1,181h11.6c3.9,0,5.7,0.3,7.2,1c3.6,1.6,5.9,5.1,5.9,9.8c0,4.3-2.3,8.3-6.1,9.8v0.1c0,0,0.5,0.5,1.2,1.8
			l7.4,13.4h-7.3l-7.1-13.4h-6.3v13.4h-6.5V181z M609.5,197.9c3.5,0,5.7-2.1,5.7-5.7c0-3.4-1.5-5.6-6.6-5.6h-5v11.2H609.5z"/>
		<rect x="640.6" y="181" class="st0" width="6.5" height="35.9"/>
		<polygon class="st0" points="666.3,181 687.8,181 687.8,186.6 672.8,186.6 672.8,196 684.9,196 684.9,201.7 672.8,201.7 
			672.8,211.3 688.6,211.3 688.6,216.9 666.3,216.9 		"/>
		<path class="st0" d="M706.4,207.7c0,0,3.9,3.8,9,3.8c2.7,0,5.2-1.4,5.2-4.4c0-6.4-17-5.3-17-16.3c0-6,5.2-10.4,12-10.4
			c7.1,0,10.7,3.8,10.7,3.8l-2.8,5.3c0,0-3.4-3.1-7.9-3.1c-3,0-5.4,1.8-5.4,4.3c0,6.4,16.9,4.8,16.9,16.3c0,5.7-4.4,10.5-11.8,10.5
			c-8,0-12.4-4.9-12.4-4.9L706.4,207.7z"/>
	</g>
	<rect x="309.4" y="35.1" class="st0" width="4.3" height="248.2"/>
	<g>
		<path class="st0" d="M147,147.4c-8.2,0-12.5,15-12.5,25.5c0,4.9,1.3,8.4,4.9,8.4c7.6,0,12.6-14.7,12.6-24.7
			C152,153.1,151.6,147.4,147,147.4"/>
		<path class="st0" d="M188.1,147.6c-4.2,0-8.7,7.5-9.8,16c5.7-1.3,12.3-3.9,12.3-12.3C190.6,148.6,189.6,147.6,188.1,147.6"/>
		<path class="st0" d="M159.8,58.6c-55.9,0-101.1,45.3-101.1,101.1c0,55.9,45.3,101.1,101.1,101.1s101.1-45.3,101.1-101.1
			C260.9,103.9,215.6,58.6,159.8,58.6 M115.4,175.1c-3.2,15.7-12.6,22.6-23,22.6l-0.5-2.5c4.4-0.7,9.7-6.1,11.6-16.1l8.7-43.7
			c0.8-4,0.9-4.8-4.3-6v-2.6h6.3c10.3,0,13.1-0.3,13.1-0.3l0.3,0.3c0,0-3.3,3.2-4.7,10.3L115.4,175.1z M139.1,184.9
			c-10.5,0-15.6-6.8-15.6-15.4c0-10.9,7.9-25.5,24.2-25.5c10.8,0,15.6,6.4,15.6,14.9C163.2,169.6,155.2,184.9,139.1,184.9
			 M179,166.7l-1,1.1c0.1,7.8,3.8,10.3,8.5,10.3c6,0,10.3-4.1,10.3-4.1l0.3,2.7c0,0-5.1,8.1-15.8,8.1c-9.8,0-14-6.8-14-14.6
			c0-12.2,10.1-26.3,23.6-26.3c4.5,0,9.7,1.5,9.7,7.3C200.7,161.4,184.3,165.5,179,166.7 M222.4,134.6l-8.3,37.5
			c-0.3,1.5-0.9,4.4-0.9,5.4c0,1.4,0.7,2,1.7,2c1.3,0,3.8-1.4,4.7-2.2l0.3,2.9c0,0-4.7,4.7-11.6,4.7c-4.2,0-6.1-2.6-6.1-5.3
			c0-2,1-5.9,1.6-8.6L212,134c0.4-1.9,0.8-3.5,0.8-4.4c0-1.5-0.7-2.6-3.3-2.6h-1.7v-2.7c6.1-0.7,13.8-2.8,16.7-4.2l0.3,0.3
			C224.4,125.1,223.1,131.6,222.4,134.6"/>
	</g>
</g>
<g id="Layer_2" class="st1">
	<rect x="130.5" class="st2" width="58.6" height="58.6"/>
	<rect x="130.5" y="260.9" class="st2" width="58.6" height="58.6"/>
	<rect y="129.9" class="st2" width="58.6" height="58.6"/>
	<rect x="898.6" y="129.9" class="st2" width="58.6" height="58.6"/>
</g>
</svg>
