<?xml version="1.0" encoding="utf-8"?><!--Generator: Adobe Illustrator 23.1.1, SVG Export Plug-In . SVG Version: 6.00 Build 0)--><svg version="1.1" id="Layer_1" xmlns="http://www.w3.org/2000/svg" xmlns:xlink="http://www.w3.org/1999/xlink" x="0px" y="0px" viewBox="0 0 17 18" style="enable-background:new 0 0 17 18" xml:space="preserve"><style type="text/css">.st0{fill:#FFFFFF;}</style><g><g><path class="st0" d="M16.2,17.1c-0.2,0-0.4-0.1-0.5-0.2l-4.2-4.2c-1.2,0.9-2.7,1.5-4.3,1.5c0,0,0,0,0,0c-1.8,0-3.6-0.7-4.9-2
			c-1.3-1.3-2-3-2-4.9c0-1.8,0.7-3.6,2-4.9c1.3-1.3,3-2,4.9-2c0,0,0,0,0,0c3.8,0,6.9,3.1,6.9,6.9l0,0c0,1.6-0.6,3.2-1.5,4.3l4.2,4.2
			c0.3,0.3,0.3,0.8,0,1.1C16.6,17,16.4,17.1,16.2,17.1z M7.2,1.9c-1.4,0-2.8,0.6-3.8,1.6c-1,1-1.6,2.4-1.6,3.8
			c0,1.4,0.6,2.8,1.6,3.8c1,1,2.4,1.6,3.8,1.6c0,0,0,0,0,0c3,0,5.4-2.4,5.4-5.4C12.6,4.3,10.1,1.9,7.2,1.9C7.2,1.9,7.2,1.9,7.2,1.9z
			"/></g></g></svg>