<?xml version="1.0" encoding="UTF-8"?>
<svg width="26px" height="13px" viewBox="0 0 26 13" version="1.1" xmlns="http://www.w3.org/2000/svg" xmlns:xlink="http://www.w3.org/1999/xlink">
    <!-- Generator: Sketch 58 (84663) - https://sketch.com -->
    <title>Apple TV 2</title>
    <desc>Created with Sketch.</desc>
    <g id="Symbols" stroke="none" stroke-width="1" fill="none" fill-rule="evenodd">
        <g id="Global/Footer" transform="translate(-1309.000000, -399.000000)" fill="#FFFFFF" fill-rule="nonzero">
            <g id="Group-10">
                <g>
                    <g id="Links-Group-8" transform="translate(1167.000000, 357.000000)">
                        <g id="Logos" transform="translate(2.000000, 39.000000)">
                            <g id="Apple-TV-2" transform="translate(140.000000, 3.000000)">
                                <path d="M14.9166667,0 L14.9166667,2.35166425 L16.8333333,2.35166425 L16.8333333,3.62156295 L14.9259259,3.62156295 L14.9259259,10.2438495 C14.9259259,10.751809 15.0092593,11.0998553 15.1666667,11.3068017 C15.3240741,11.5137482 15.6111111,11.6078148 16.0092593,11.6078148 C16.2407407,11.6078148 16.5648148,11.5607815 17,11.4761216 L17,12.7648336 C16.4351852,12.9247467 15.8518519,13 15.2592593,13 C13.8796296,13 13.1944444,12.2098408 13.1944444,10.6201158 L13.1944444,3.6121563 L12,3.6121563 L12,2.3422576 L13.2592593,2.3422576 L13.2592593,0.686685962 L14.9166667,0 Z M26,3 L22.4034582,13 L20.5014409,13 L17,3.00895255 L18.7118156,3.00895255 L20.8299712,9.50850492 C20.907781,9.75917637 21.1152738,10.484333 21.443804,11.6929275 L21.7550432,10.6096688 L22.1008646,9.51745748 L24.29683,3 L26,3 Z M7.44006566,3.14886035 C7.83924186,3.16722105 8.96734852,3.32328702 9.68760123,4.43410947 C9.62685703,4.47083088 8.34255099,5.26034105 8.35122873,6.90362386 C8.36858422,8.86821895 9.98264451,9.52920421 10,9.53838456 C9.98264451,9.58428632 9.73966769,10.4747804 9.14958113,11.3836351 C8.63759427,12.1731453 8.10825191,12.9626554 7.26651079,12.9810161 C6.44212516,12.9993768 6.18179285,12.4669165 5.23591881,12.4669165 C4.29872251,12.4669165 4.00367923,12.9626554 3.22268231,12.9993768 C2.4243299,13.0269179 1.80821011,12.1364239 1.2875455,11.3469137 C0.237538536,9.73117193 -0.569491612,6.7842793 0.515226329,4.80132351 C1.05324643,3.80984561 2.01647596,3.18558175 3.05780518,3.1764014 C3.84747984,3.1580407 4.60244353,3.74558316 5.08839717,3.74558316 C5.5743508,3.74558316 6.48551387,3.04787649 7.44006566,3.14886035 Z M7.4487434,0 C7.5268431,0.761969123 7.23179982,1.52393825 6.80659038,2.0747593 C6.38138095,2.6164 5.66980598,3.04787649 4.98426424,2.99279439 C4.88880906,2.24918597 5.23591881,1.46885614 5.63509501,0.982297544 C6.08633767,0.431476491 6.83262361,0.0275410526 7.4487434,0 Z" id="Apple-TV"></path>
                            </g>
                        </g>
                    </g>
                </g>
            </g>
        </g>
    </g>
</svg>