<?xml version="1.0" encoding="UTF-8"?>
<svg width="88px" height="88px" viewBox="0 0 88 88" version="1.1" xmlns="http://www.w3.org/2000/svg" xmlns:xlink="http://www.w3.org/1999/xlink">
    <!-- Generator: Sketch 53 (72520) - https://sketchapp.com -->
    <title>UI/Icon/Social/Instagram@2x</title>
    <desc>Created with Sketch.</desc>
    <g id="UI-Styles" stroke="none" stroke-width="1" fill="none" fill-rule="evenodd">
        <g id="Brand-Theme" transform="translate(-1039.000000, -535.000000)" fill="#FFFFFF">
            <g id="Group">
                <g id="Group-2" transform="translate(80.000000, 41.000000)">
                    <g id="icons" transform="translate(0.000000, 110.000000)">
                        <g id="Social" transform="translate(959.000000, 0.000000)">
                            <g id="UI/Icon/Social/Instagram" transform="translate(0.000000, 384.000000)">
                                <path d="M43.9860317,2.13162821e-14 C55.9320317,2.13162821e-14 57.4297778,0.0505346535 62.1213651,0.264174257 C66.8033492,0.477291089 70.0006825,1.21945347 72.7986984,2.30472871 C75.6911746,3.42642376 78.1441746,4.92747723 80.5894921,7.36795248 C83.0349841,9.80860198 84.5388413,12.2567446 85.6629365,15.1433188 C86.7503651,17.9357941 87.494,21.126796 87.7075397,25.7995089 C87.9216032,30.4818059 87.9722381,31.9767604 87.9722381,43.8989307 C87.9722381,55.8212752 87.9216032,57.3162297 87.7075397,61.9985267 C87.494,66.6710653 86.7503651,69.8622416 85.6629365,72.6545426 C84.5388413,75.5412911 83.0349841,77.9894337 80.5894921,80.4299089 C78.1441746,82.8705584 75.6911746,84.3714376 72.7986984,85.4934812 C70.0006825,86.5785822 66.8033492,87.3207446 62.1213651,87.5340356 C57.4297778,87.747501 55.9320317,87.7980356 43.9860317,87.7980356 C32.0402063,87.7980356 30.5421111,87.747501 25.8506984,87.5340356 C21.1687143,87.3207446 17.971381,86.5785822 15.1733651,85.4934812 C12.2810635,84.3714376 9.82788889,82.8705584 7.38257143,80.4299089 C4.93707937,77.9894337 3.43322222,75.5411168 2.30912698,72.6545426 C1.22169841,69.8622416 0.478238095,66.6710653 0.26452381,61.9985267 C0.0504603175,57.3162297 1.91846539e-13,55.8212752 1.91846539e-13,43.8989307 C1.91846539e-13,31.9765861 0.0504603175,30.4818059 0.26452381,25.7995089 C0.478238095,21.126796 1.22169841,17.9357941 2.30912698,15.1433188 C3.43322222,12.2567446 4.93707937,9.80860198 7.38257143,7.36795248 C9.82788889,4.92747723 12.2810635,3.42642376 15.1733651,2.30472871 C17.971381,1.21945347 21.1687143,0.477291089 25.8506984,0.264174257 C30.5421111,0.0505346535 32.0402063,2.13162821e-14 43.9860317,2.13162821e-14 Z M43.9860317,7.90971881 C32.2411746,7.90971881 30.8501111,7.95432871 26.2117778,8.16552871 C21.9233492,8.36087129 19.5941429,9.07602376 18.0441905,9.67721188 C15.9912063,10.4735683 14.5257619,11.4248396 12.9866349,12.9610931 C11.4475079,14.4971723 10.4941746,15.9595406 9.6962381,18.0086337 C9.09403175,19.5555168 8.37746032,21.8799366 8.18173016,26.1600475 C7.97011111,30.7890218 7.9254127,32.177505 7.9254127,43.8989307 C7.9254127,55.6205307 7.97011111,57.0090139 8.18173016,61.6379881 C8.37746032,65.918099 9.09403175,68.2425188 9.6962381,69.789402 C10.4941746,71.8383208 11.4475079,73.3008634 12.9866349,74.8369426 C14.5257619,76.373196 15.9912063,77.3244673 18.0441905,78.1208238 C19.5941429,78.7218376 21.9233492,79.4371644 26.2119524,79.6323327 C30.8494127,79.8435327 32.2403016,79.8883168 43.9860317,79.8883168 C55.7317619,79.8883168 57.1226508,79.8435327 61.7601111,79.6323327 C66.0487143,79.4371644 68.377746,78.7218376 69.9276984,78.1208238 C71.9808571,77.3244673 73.4463016,76.373196 74.9854286,74.8369426 C76.5245556,73.3008634 77.4777143,71.8383208 78.2758254,69.789402 C78.8780317,68.2425188 79.5946032,65.918099 79.7903333,61.6378139 C80.0017778,57.0090139 80.0466508,55.6205307 80.0466508,43.8989307 C80.0466508,32.177505 80.0017778,30.7890218 79.7903333,26.1600475 C79.5946032,21.8799366 78.8780317,19.5555168 78.2758254,18.0086337 C77.4777143,15.9595406 76.5245556,14.4971723 74.9854286,12.9609188 C73.4463016,11.4248396 71.9808571,10.4735683 69.9276984,9.67721188 C68.377746,9.07602376 66.0487143,8.36087129 61.7601111,8.16552871 C57.1219524,7.95432871 55.7308889,7.90971881 43.9860317,7.90971881 Z M43.9860317,58.5320238 C52.0836032,58.5320238 58.6481587,51.9804673 58.6481587,43.8989307 C58.6481587,35.8173941 52.0836032,29.2660119 43.9860317,29.2660119 C35.8884603,29.2660119 29.3239048,35.8173941 29.3239048,43.8989307 C29.3239048,51.9804673 35.8884603,58.5320238 43.9860317,58.5320238 Z M43.9860317,21.3562931 C56.4607302,21.3562931 66.5733968,31.4489347 66.5733968,43.8989307 C66.5733968,56.349101 56.4607302,66.4417426 43.9860317,66.4417426 C31.5113333,66.4417426 21.3984921,56.349101 21.3984921,43.8989307 C21.3984921,31.4489347 31.5113333,21.3562931 43.9860317,21.3562931 Z M72.7442397,20.4656285 C72.7442397,23.3750305 70.3811603,25.7334305 67.4659857,25.7334305 C64.5508111,25.7334305 62.1875571,23.3750305 62.1875571,20.4656285 C62.1875571,17.5562265 64.5508111,15.1978265 67.4659857,15.1978265 C70.3811603,15.1978265 72.7442397,17.5562265 72.7442397,20.4656285 Z" id="Instagram"></path>
                            </g>
                        </g>
                    </g>
                </g>
            </g>
        </g>
    </g>
</svg>