<?xml version="1.0" encoding="UTF-8"?>
<svg width="45px" height="14px" viewBox="0 0 45 14" version="1.1" xmlns="http://www.w3.org/2000/svg" xmlns:xlink="http://www.w3.org/1999/xlink">
    <!-- Generator: Sketch 58 (84663) - https://sketch.com -->
    <title>Roku 2</title>
    <desc>Created with Sketch.</desc>
    <g id="Symbols" stroke="none" stroke-width="1" fill="none" fill-rule="evenodd">
        <g id="Global/Footer" transform="translate(-1169.000000, -399.000000)" fill="#FFFFFF" fill-rule="nonzero">
            <g id="Group-10">
                <g>
                    <g id="Links-Group-8" transform="translate(1167.000000, 357.000000)">
                        <g id="Logos" transform="translate(2.000000, 39.000000)">
                            <g id="Roku-2" transform="translate(0.000000, 3.000000)">
                                <path d="M16.3078208,2.68623753 C19.4073421,2.68623753 21.9279699,5.11435315 21.9279699,8.14262127 C21.9279699,11.1732091 19.4073421,13.5999992 16.3078208,13.5999992 C13.2093162,13.5999992 10.7073296,11.1732091 10.7073296,8.14262127 C10.7073296,5.11435315 13.2093162,2.68623753 16.3078208,2.68623753 Z M26.2903132,2.89458423 L26.2903132,7.02009417 L30.4964433,2.90817134 L37.9698656,2.90817134 L37.9698656,8.64458206 C37.9698656,10.3098313 38.3820053,10.8304495 39.2801717,10.8304495 C40.1654587,10.8304495 40.7382517,10.3893656 41.1493746,9.68780684 L41.1493746,9.68780684 L41.1493746,2.90817134 L44.7999973,2.90817134 L44.7999973,13.3795235 L44.0207956,13.3795235 L42.3793542,11.9952955 C41.7018317,12.7574991 40.3078096,13.5998998 38.7887222,13.5998998 C35.5888773,13.5998998 34.3182261,11.6933965 34.3182261,9.62749334 L34.3182261,9.62749334 L34.3182261,3.40526066 L29.6962279,7.92280837 L35.2763832,13.3795235 L30.6814995,13.3795235 L26.2903132,9.12642731 L26.2903132,13.3795235 L22.6396905,13.3795235 L22.6396905,2.89458423 L26.2903132,2.89458423 Z M5.23071771,4.00568467e-13 C8.24618427,3.9879211e-13 10.7074991,2.00492691 10.7074991,4.4718155 C10.7074991,5.97633917 9.763916,7.32013729 8.32786657,8.14232302 L12.1899821,13.3892665 L8.04689301,13.3892665 L4.75757043,8.92606717 L3.65130058,8.92606717 L3.65130058,13.3796561 L-2.40503166e-14,13.3796561 L-2.56888519e-14,4.00568467e-13 L5.23071771,4.00568467e-13 Z M16.3078208,5.2747473 C15.3435629,5.2747473 14.5233506,6.55624356 14.5233506,8.14262127 C14.5233506,9.72899898 15.3435629,11.0121522 16.3078208,11.0121522 C17.2944481,11.0121522 18.1133047,9.72899898 18.1133047,8.14262127 C18.1133047,6.55624356 17.2944481,5.2747473 16.3078208,5.2747473 Z M4.77993986,2.22530318 L3.65130058,2.22530318 L3.65130058,6.69844425 L4.77993986,6.69844425 C6.03194991,6.69844425 7.0558596,5.6956494 7.0558596,4.4718155 C7.0558596,3.22743524 6.03194991,2.22530318 4.77993986,2.22530318 Z" id="Roku"></path>
                            </g>
                        </g>
                    </g>
                </g>
            </g>
        </g>
    </g>
</svg>