<?xml version="1.0" encoding="UTF-8"?>
<svg width="62px" height="19px" viewBox="0 0 62 19" version="1.1" xmlns="http://www.w3.org/2000/svg" xmlns:xlink="http://www.w3.org/1999/xlink">
    <!-- Generator: Sketch 58 (84663) - https://sketch.com -->
    <title>Spotify_logo_with_text</title>
    <desc>Created with Sketch.</desc>
    <g id="Symbols" stroke="none" stroke-width="1" fill="none" fill-rule="evenodd">
        <g id="Global/Footer" transform="translate(-1351.000000, -396.000000)" fill="#FFFFFF" fill-rule="nonzero">
            <g id="Group-10">
                <g>
                    <g id="Links-Group-8" transform="translate(1167.000000, 357.000000)">
                        <g id="Logos" transform="translate(2.000000, 39.000000)">
                            <g id="Spotify_logo_with_text" transform="translate(182.000000, 0.000000)">
                                <path d="M9.21940194,0.0304035232 C4.14311116,0.0304035232 0.027769283,4.14563564 0.027769283,9.22192642 C0.027769283,14.2984367 4.14311116,18.4133396 9.21940194,18.4133396 C14.2962415,18.4133396 18.4111444,14.2984367 18.4111444,9.22192642 C18.4111444,4.14596492 14.2962415,0.0308425633 9.21929218,0.0308425633 L9.21940194,0.0304035232 Z M13.4346254,13.2872177 C13.2699854,13.5572274 12.9165582,13.6428402 12.6465485,13.4771026 C10.4884472,12.1588848 7.77166739,11.8603376 4.57216305,12.5913393 C4.26384718,12.6615857 3.95651914,12.4684081 3.88627273,12.1599824 C3.81569705,11.8515568 4.00810635,11.5442288 4.31719054,11.4739823 C7.81853491,10.6740514 10.8218981,11.0184783 13.2447406,12.4991409 C13.5147502,12.6648785 13.6003631,13.0172081 13.4346254,13.2872177 L13.4346254,13.2872177 Z M14.5596656,10.78447 C14.3522191,11.1216527 13.9109839,11.2281199 13.5740206,11.0206735 C11.1033228,9.50203397 7.3371275,9.06222561 4.41476719,9.94930602 C4.03576587,10.0637857 3.63547111,9.85019273 3.52044262,9.47184997 C3.4062922,9.09284865 3.61999495,8.69332221 3.99833771,8.5780742 C7.33646894,7.56520881 11.4863852,8.05583606 14.3236815,9.79937385 C14.6606448,10.0068203 14.767112,10.4480555 14.5596656,10.7845797 L14.5596656,10.78447 Z M14.6562544,8.17832823 C11.6938316,6.41876549 6.80621833,6.25697923 3.97781258,7.11541228 C3.52362566,7.25316109 3.04331584,6.99676171 2.90567679,6.54257478 C2.76803774,6.08816833 3.0242176,5.6081878 3.47873381,5.4701097 C6.72554472,4.4844648 12.1229933,4.67489842 15.5336759,6.69964136 C15.9430807,6.94210122 16.076988,7.4697176 15.8344183,7.87769556 C15.5929463,8.28622232 15.063903,8.42089786 14.6566934,8.17832823 L14.6562544,8.17832823 Z M25.0351611,8.51551099 C23.4480313,8.13705847 23.1659481,7.87143924 23.1659481,7.31330958 C23.1659481,6.78602248 23.6620633,6.43116837 24.4007482,6.43116837 C25.1163835,6.43116837 25.8254332,6.7006292 26.569606,7.25535629 C26.591558,7.27214958 26.6200956,7.27884494 26.6475356,7.27445454 C26.6760732,7.27028366 26.7002205,7.25502701 26.7166845,7.23208717 L27.4915901,6.13975554 C27.5234205,6.09475393 27.5146397,6.03273952 27.4718333,5.99838464 C26.58607,5.28790808 25.5894491,4.94249333 24.4237978,4.94249333 C22.710444,4.94249333 21.5129623,5.97083488 21.5129623,7.44216783 C21.5129623,9.019968 22.545804,9.57864646 24.3305018,10.0098935 C25.8484828,10.3596987 26.1053212,10.6527579 26.1053212,11.1765327 C26.1053212,11.7571632 25.5872539,12.1182736 24.7530778,12.1182736 C23.8267033,12.1182736 23.0704569,11.8054576 22.2253048,11.0744559 C22.2044504,11.0557967 22.1759128,11.0481135 22.1495704,11.0492111 C22.1210328,11.0514063 22.095788,11.0645775 22.0782264,11.0854319 L21.2089271,12.1193712 C21.1727063,12.1632752 21.1770967,12.226936 21.2188055,12.2642544 C22.2022552,13.1423345 23.4118105,13.6055218 24.7179546,13.6055218 C26.564118,13.6055218 27.7572196,12.5968273 27.7572196,11.0349423 C27.7605022,9.71705384 26.9713277,8.98714976 25.0384539,8.51693787 L25.0351611,8.51551099 Z M31.9346754,6.95033322 C31.1345249,6.95033322 30.4781601,7.26556398 29.9359456,7.91150164 L29.9359456,7.18445133 C29.9359456,7.12704684 29.8898464,7.08028908 29.8327712,7.08028908 L28.411379,7.08028908 C28.3543038,7.08028908 28.3082046,7.12704684 28.3082046,7.18445133 L28.3082046,15.2628979 C28.3082046,15.3199732 28.3543038,15.36717 28.411379,15.36717 L29.8327712,15.36717 C29.8898464,15.36717 29.9359456,15.3199732 29.9359456,15.2628979 L29.9359456,12.7131729 C30.4781601,13.3201457 31.1345249,13.6175954 31.9346754,13.6175954 C33.4219236,13.6175954 34.9278333,12.4727985 34.9278333,10.2842936 C34.9300261,8.09534966 33.4241188,6.95022346 31.935773,6.95022346 L31.9346754,6.95033322 Z M33.2748452,10.2842936 C33.2748452,11.3982479 32.5888451,12.1764464 31.6053954,12.1764464 C30.6340193,12.1764464 29.9008224,11.3631247 29.9008224,10.2842936 C29.9008224,9.20535266 30.6340193,8.3922505 31.6053954,8.3922505 C32.5723811,8.39214074 33.2748452,9.1876813 33.2748452,10.2841838 L33.2748452,10.2842936 Z M38.7858953,6.95033322 C36.8705831,6.95033322 35.3701638,8.42506874 35.3701638,10.3081115 C35.3701638,12.1709584 36.8607047,13.629669 38.7628457,13.629669 C40.6847435,13.629669 42.1895533,12.1599824 42.1895533,10.2842936 C42.1895533,8.41497082 40.6946219,6.95055274 38.7858953,6.95055274 L38.7858953,6.95033322 L38.7858953,6.95033322 Z M38.7858953,12.1874224 C37.7673224,12.1874224 36.9990023,11.3686127 36.9990023,10.2837448 C36.9990023,9.19393762 37.74098,8.40311674 38.7628457,8.40311674 C39.7880042,8.40311674 40.5607147,9.22159714 40.5607147,10.3075627 C40.5607147,11.3971503 39.8143466,12.1874224 38.7858953,12.1874224 L38.7858953,12.1874224 Z M46.2792113,7.08028908 L44.7151312,7.08028908 L44.7151312,5.48152475 C44.7151312,5.42423002 44.669032,5.37747225 44.6119568,5.37747225 L43.1905646,5.37747225 C43.1334894,5.37747225 43.0862926,5.42423002 43.0862926,5.48152475 L43.0862926,7.08028908 L42.4035853,7.08028908 C42.3465101,7.08028908 42.3004109,7.12704684 42.3004109,7.18445133 L42.3004109,8.40575098 C42.3004109,8.4630457 42.3465101,8.50991323 42.4035853,8.50991323 L43.0862926,8.50991323 L43.0862926,11.6704528 C43.0862926,12.9469617 43.7218031,13.5945458 44.97636,13.5945458 C45.4856465,13.5945458 45.9082225,13.4891762 46.3066513,13.2630705 C46.3395793,13.2455089 46.3593361,13.2103857 46.3593361,13.1730673 L46.3593361,12.0096112 C46.3593361,11.974488 46.3406769,11.9404624 46.3099441,11.9218032 C46.2792113,11.9020464 46.2407953,11.9009488 46.2089649,11.9174128 C45.9356625,12.0546128 45.6711409,12.1182736 45.3747888,12.1182736 C44.9192848,12.1182736 44.7151312,11.9108272 44.7151312,11.4476399 L44.7151312,8.51046203 L46.2792113,8.51046203 C46.3362865,8.51046203 46.3823858,8.46370426 46.3823858,8.40629978 L46.3823858,7.18510989 C46.384581,7.1277054 46.3384817,7.08094764 46.2803089,7.08094764 L46.2792113,7.08028908 L46.2792113,7.08028908 Z M51.7276983,7.0865454 L51.7276983,6.89018474 C51.7276983,6.31251779 51.9494135,6.05491105 52.4455288,6.05491105 C52.7418808,6.05491105 52.9800601,6.11374241 53.2467769,6.20264802 C53.2797049,6.21296546 53.3137305,6.20780674 53.3400729,6.1881597 C53.3675129,6.16851266 53.3828793,6.13701154 53.3828793,6.10364449 L53.3828793,4.90616276 C53.3828793,4.86039284 53.3543417,4.81989139 53.3093401,4.80639091 C53.0283545,4.72264402 52.6683416,4.63670193 52.1283224,4.63670193 C50.8166902,4.63670193 50.1219094,5.37582585 50.1219094,6.77340008 L50.1219094,7.07414252 L49.4392021,7.07414252 C49.3821269,7.07414252 49.3349301,7.12090028 49.3349301,7.17819501 L49.3349301,8.40575098 C49.3349301,8.4630457 49.3821269,8.50991323 49.4392021,8.50991323 L50.1219094,8.50991323 L50.1219094,13.3838065 C50.1219094,13.4419794 50.1691062,13.4880786 50.2261814,13.4880786 L51.6464759,13.4880786 C51.7046487,13.4880786 51.7507479,13.4419794 51.7507479,13.3838065 L51.7507479,8.51024251 L53.0777465,8.51024251 L55.1105019,13.3838065 C54.8800059,13.8952882 54.6528026,13.997365 54.3432794,13.997365 C54.0930266,13.997365 53.8285049,13.9227282 53.5595929,13.7745522 C53.5343481,13.761381 53.5036153,13.7591858 53.4772729,13.766869 C53.4498329,13.7767474 53.4267833,13.7965042 53.4158073,13.8228466 L52.9339609,14.8798355 C52.9109112,14.9303251 52.930668,14.9884979 52.9789625,15.0148403 C53.4816633,15.2870452 53.9349722,15.4033908 54.4958458,15.4033908 C55.5451515,15.4033908 56.125782,14.9138611 56.636166,13.5989362 L59.1013759,7.22879437 C59.1145471,7.19674445 59.1101567,7.16052364 59.0903999,7.1320958 C59.0717407,7.10388748 59.0399103,7.08687468 59.0058847,7.08687468 L57.5263197,7.08687468 C57.4813181,7.08687468 57.4418045,7.115083 57.4275357,7.15668204 L55.91175,11.4849583 L54.2521786,7.15382828 C54.2368122,7.11354636 54.1983962,7.08687468 54.1555898,7.08687468 L51.7276983,7.08687468 L51.7276983,7.0865454 L51.7276983,7.0865454 Z M48.5688052,7.08028908 L47.147413,7.08028908 C47.0903378,7.08028908 47.043141,7.12704684 47.043141,7.18445133 L47.043141,13.3838065 C47.043141,13.4419794 47.0903378,13.4880786 47.147413,13.4880786 L48.5688052,13.4880786 C48.6258804,13.4880786 48.6730772,13.4419794 48.6730772,13.3838065 L48.6730772,7.18489037 C48.6730772,7.12748588 48.626978,7.08072812 48.5688052,7.08072812 L48.5688052,7.08028908 Z M47.8663411,4.25737133 C47.3032722,4.25737133 46.8466706,4.7130949 46.8466706,5.276054 C46.8466706,5.83934238 47.3032722,6.29561475 47.8663411,6.29561475 C48.42941,6.29561475 48.884914,5.83934238 48.884914,5.276054 C48.884914,4.71320466 48.4283124,4.25737133 47.8663411,4.25737133 Z M60.3153216,9.07364065 C59.7533504,9.07364065 59.3154079,8.6219782 59.3154079,8.07350742 C59.3154079,7.52503664 59.7588384,7.06821547 60.3208096,7.06821547 C60.8827809,7.06821547 61.3207233,7.51976816 61.3207233,8.0677999 C61.3207233,8.61627068 60.8772929,9.07364065 60.3153216,9.07364065 Z M60.3208096,7.16765805 C59.8082304,7.16765805 59.4207775,7.57486769 59.4207775,8.07350742 C59.4207775,8.57192763 59.8060352,8.97364928 60.3153216,8.97364928 C60.8279009,8.97364928 61.2153537,8.56676891 61.2153537,8.0677999 C61.2153537,7.56937969 60.8300961,7.16765805 60.3208096,7.16765805 L60.3208096,7.16765805 Z M60.5425249,8.17064503 L60.8257057,8.56665915 L60.5864289,8.56665915 L60.3317856,8.20335352 L60.1133632,8.20335352 L60.1133632,8.56665915 L59.9136,8.56665915 L59.9136,7.5169144 L60.3811776,7.5169144 C60.6259425,7.5169144 60.7861921,7.64171154 60.7861921,7.8517922 C60.7872897,8.0238959 60.6874081,8.12904599 60.5436225,8.17064503 L60.5425249,8.17064503 Z M60.3734944,7.69703058 L60.1133632,7.69703058 L60.1133632,8.02905462 L60.3734944,8.02905462 C60.5030113,8.02905462 60.5809409,7.96550357 60.5809409,7.86287796 C60.5809409,7.75487411 60.5030113,7.69703058 60.3734944,7.69703058 L60.3734944,7.69703058 Z" id="Shape"></path>
                            </g>
                        </g>
                    </g>
                </g>
            </g>
        </g>
    </g>
</svg>