<?xml version="1.0" encoding="UTF-8"?>
<svg width="88px" height="72px" viewBox="0 0 88 72" version="1.1" xmlns="http://www.w3.org/2000/svg" xmlns:xlink="http://www.w3.org/1999/xlink">
    <!-- Generator: Sketch 53 (72520) - https://sketchapp.com -->
    <title>UI/Icon/Social/Twitter@2x</title>
    <desc>Created with Sketch.</desc>
    <g id="UI-Styles" stroke="none" stroke-width="1" fill="none" fill-rule="evenodd">
        <g id="Brand-Theme" transform="translate(-1039.000000, -419.000000)" fill="#FFFFFF">
            <g id="Group">
                <g id="Group-2" transform="translate(80.000000, 41.000000)">
                    <g id="icons" transform="translate(0.000000, 110.000000)">
                        <g id="Social" transform="translate(959.000000, 0.000000)">
                            <g id="UI/Icon/Social/Twitter" transform="translate(0.000000, 256.000000)">
                                <path d="M77.6121194,23.3514324 C81.3871306,21.120744 84.2249888,17.5041248 85.5977201,13.2935353 C82.0734963,15.3526324 78.2060897,16.8969552 74.0878956,17.6757162 C70.8276586,14.1514924 66.1022949,12 60.9413529,12 C50.9758512,12 42.8978551,20.0779961 42.8978551,30.0434978 C42.8978551,31.4162292 42.9770511,32.8813559 43.3334333,34.1748913 C28.299385,33.3961302 14.9812509,26.2684866 6.0320984,15.2734363 C4.48777561,17.939703 3.53742313,21.120744 3.53742313,24.380981 C3.53742313,30.6506675 6.45447728,36.1547923 11.3514324,39.4150292 C8.3419829,39.3226339 5.50412479,38.4646768 2.75866207,37.1843408 C2.75866207,37.1843408 2.75866207,37.2767362 2.75866207,37.3559322 C2.75866207,46.120294 9.37153142,53.419529 17.6211189,55.0562472 C16.0767962,55.4786261 14.8756562,55.7426129 13.2389381,55.7426129 C12.1169942,55.7426129 11.0082496,55.5710214 9.88630568,55.39943 C12.2093895,62.5270736 18.8222589,67.780411 26.7286636,67.9520024 C20.5381731,72.7697615 12.8033598,75.6868157 4.30298485,75.6868157 C2.83785811,75.6868157 1.3859307,75.6076196 0,75.4360282 C7.98560072,80.5045748 17.4495275,83.5140243 27.6658167,83.5140243 C60.8357582,83.5140243 79.0508475,56.019799 79.0508475,32.1289936 C79.0508475,31.3502325 79.0508475,30.5846708 78.9716514,29.8059097 C82.4958752,27.3112344 85.5845208,24.1301935 88,20.4343783 C84.739763,21.899505 81.3079346,22.8366582 77.6121194,23.3514324 Z" id="Twitter"></path>
                            </g>
                        </g>
                    </g>
                </g>
            </g>
        </g>
    </g>
</svg>