<?xml version="1.0" encoding="UTF-8"?>
<svg width="63px" height="14px" viewBox="0 0 63 14" version="1.1" xmlns="http://www.w3.org/2000/svg" xmlns:xlink="http://www.w3.org/1999/xlink">
    <!-- Generator: Sketch 58 (84663) - https://sketch.com -->
    <title>YouTube 2</title>
    <desc>Created with Sketch.</desc>
    <g id="Symbols" stroke="none" stroke-width="1" fill="none" fill-rule="evenodd">
        <g id="Global/Footer" transform="translate(-1230.000000, -399.000000)" fill="#FFFFFF" fill-rule="nonzero">
            <g id="Group-10">
                <g>
                    <g id="Links-Group-8" transform="translate(1167.000000, 357.000000)">
                        <g id="Logos" transform="translate(2.000000, 39.000000)">
                            <g id="YouTube-2" transform="translate(61.000000, 3.000000)">
                                <path d="M10.1876508,0.000701868007 C11.357079,0.00589569126 16.3502652,0.0495238066 17.7209438,0.415999975 C18.5725973,0.639999962 19.2440933,1.29599992 19.4733847,2.12799987 C19.8282403,3.39466646 19.8760673,5.80577743 19.8821526,6.5742959 L19.8825075,6.90577559 C19.8788217,7.43007956 19.8419638,10.1199994 19.4733847,11.4879993 C19.2440933,12.3199993 18.5725973,12.9759992 17.7209438,13.1999992 C16.3502652,13.5523801 11.357079,13.5943303 10.1876508,13.5993243 L9.69579609,13.5992973 C8.52918977,13.5941035 3.54699641,13.5504754 2.16188963,13.1839992 C1.31023614,12.9599992 0.638740119,12.3039993 0.409448794,11.4719993 C0.0545931726,10.1685327 0.00727908968,7.61521732 0.000970545291,6.95750596 L0.000970545291,6.64323279 C0.00727908968,5.98847964 0.0545931726,3.44533313 0.409448794,2.12799987 C0.638740119,1.29599992 1.32661409,0.623999963 2.16188963,0.399999976 C3.48361541,0.060204078 8.17371887,0.00906132807 9.55559425,0.00136382234 L9.69518264,0.000674873084 L10.1876508,0.000701868007 Z M30.5448801,3.95199976 C31.1836202,3.95199976 31.7077146,4.07999976 32.1007855,4.33599974 C32.4938563,4.59199973 32.7722815,5.0079997 32.952439,5.55199967 C33.1325965,6.09599964 33.2308642,6.83199959 33.2308642,7.75999954 L33.2308642,8.99199946 C33.2308642,9.90399941 33.1489744,10.6239994 32.9688169,11.1839993 C32.7886595,11.7279993 32.5102343,12.1439993 32.1171634,12.3999993 C31.7240926,12.6559992 31.1836202,12.7839992 30.5121242,12.7839992 C29.8242502,12.7679992 29.2673998,12.6399992 28.874329,12.3839993 C28.4812581,12.1279993 28.202833,11.7279993 28.0390534,11.1679993 C27.8752739,10.6239994 27.7933842,9.88799941 27.7933842,8.99199946 L27.7933842,7.75999954 C27.7933842,6.84799959 27.8916519,6.11199964 28.0718094,5.55199967 C28.2683448,4.9919997 28.5631479,4.59199973 28.9562187,4.33599974 C29.3656675,4.07999976 29.889762,3.95199976 30.5448801,3.95199976 Z M36.2116514,4.11199975 L36.2116514,10.3679994 C36.2116514,10.7519994 36.2607852,11.0239993 36.342675,11.1839993 C36.4245648,11.3439993 36.5719663,11.4239993 36.7685017,11.4239993 C36.9322813,11.4239993 37.0960608,11.3759993 37.2598403,11.2639993 C37.4236198,11.1679993 37.5382655,11.0399993 37.6037773,10.8799994 L37.6037773,4.11199975 L39.5691315,4.11199975 L39.5691315,12.6399992 L38.029604,12.6399992 L37.8658245,11.5999993 L37.8166907,11.5999993 C37.4072419,12.3839993 36.7685017,12.7839992 35.9332262,12.7839992 C35.3599979,12.7839992 34.9341711,12.5919992 34.655746,12.2239993 C34.3773208,11.8559993 34.2462972,11.2799993 34.2462972,10.4799994 L34.2462972,4.11199975 L36.2116514,4.11199975 Z M46.2840917,4.11199975 L46.2840917,10.3679994 C46.2840917,10.7519994 46.3332256,11.0239993 46.4151153,11.1839993 C46.4970051,11.3439993 46.6444067,11.4239993 46.8409421,11.4239993 C47.0047216,11.4239993 47.1685011,11.3759993 47.3322806,11.2639993 C47.4960602,11.1679993 47.6107058,11.0399993 47.6762176,10.8799994 L47.6762176,4.11199975 L49.6415718,4.11199975 L49.6415718,12.6399992 L48.1020444,12.6399992 L47.9382649,11.5999993 L47.889131,11.5999993 C47.4796822,12.3839993 46.8409421,12.7839992 46.0056665,12.7839992 C45.4324382,12.7839992 45.0066115,12.5919992 44.7281863,12.2239993 C44.4497611,11.8559993 44.3187375,11.2799993 44.3187375,10.4799994 L44.3187375,4.11199975 L46.2840917,4.11199975 Z M52.7206268,0.527999969 L52.7206268,5.0239997 L52.7370047,5.0239997 C52.9007842,4.70399972 53.1464535,4.43199974 53.4576346,4.23999975 C53.7688157,4.03199976 54.1127527,3.93599977 54.4730676,3.93599977 C54.9316503,3.93599977 55.3083432,4.06399976 55.5703904,4.30399974 C55.8324376,4.54399973 56.028973,4.92799971 56.1436187,5.47199967 C56.2582644,5.99999964 56.3073982,6.7519996 56.3237762,7.72799954 L56.3237762,7.72799954 L56.3237762,9.07199946 C56.3237762,10.3359994 56.1599967,11.2799993 55.8488156,11.8719993 C55.5376345,12.4639993 55.0626739,12.7679992 54.3911779,12.7679992 C54.014485,12.7679992 53.6869259,12.6719992 53.3757449,12.5119993 C53.0645638,12.3359993 52.8352724,12.1119993 52.6878709,11.8239993 L52.6878709,11.8239993 L52.638737,11.8239993 L52.4422016,12.6239992 L50.8207844,12.6239992 L50.8207844,0.527999969 L52.7206268,0.527999969 Z M59.8777917,3.91999977 C60.5492877,3.91999977 61.0733822,4.04799976 61.4336971,4.28799974 C61.7940121,4.52799973 62.0396813,4.91199971 62.1870829,5.40799968 C62.3344845,5.91999977 62.3999963,6.62399961 62.3999963,7.51999955 L62.3999963,8.97599946 L59.108028,8.97599946 L59.108028,9.43999944 C59.108028,9.9839994 59.1244059,10.3999994 59.1571618,10.6719994 C59.1899177,10.9439993 59.2554295,11.1519993 59.3700752,11.2639993 C59.4683429,11.3919993 59.6321224,11.4559993 59.8614138,11.4559993 C60.1562169,11.4559993 60.3527523,11.3439993 60.467398,11.1199993 C60.5820436,10.8959994 60.6311775,10.5279994 60.6475554,9.9999994 L62.3344845,10.0959994 C62.3508624,10.1759994 62.3508624,10.2719994 62.3508624,10.3999994 C62.3508624,11.1839993 62.1379491,11.7759993 61.6957444,12.1599993 C61.2535397,12.5439993 60.6311775,12.7359992 59.8286579,12.7359992 C58.8623587,12.7359992 58.1908627,12.4319993 57.7977918,11.8399993 C57.404721,11.2479993 57.2081856,10.3359994 57.2081856,9.08799946 L57.2081856,7.59999955 C57.2081856,6.31999962 57.404721,5.39199968 57.8141698,4.79999971 C58.2236186,4.20799975 58.9114926,3.91999977 59.8777917,3.91999977 Z M23.8135419,0.959999943 L24.5996836,4.52799973 C24.796219,5.40799968 24.9436206,6.15999963 25.0418883,6.7839996 L25.0910221,6.7839996 C25.1565339,6.33599962 25.3039355,5.59999967 25.5332268,4.54399973 L26.3521244,0.959999943 L28.3011007,0.959999943 L26.0409433,8.84799947 L26.0409433,12.6239992 L24.108345,12.6239992 L24.108345,8.84799947 L24.0919671,8.84799947 L21.8645656,0.959999943 L23.8135419,0.959999943 Z M44.9083438,0.959999943 L44.9083438,2.51199985 L42.9593675,2.51199985 L42.9593675,12.6239992 L41.0431472,12.6239992 L41.0431472,2.51199985 L39.0941709,2.51199985 L39.0941709,0.959999943 L44.9083438,0.959999943 Z M30.5121242,5.26399969 C30.2500769,5.26399969 30.0535415,5.40799968 29.9552738,5.67999966 C29.8406281,5.96799964 29.7914943,6.41599962 29.7914943,7.02399958 L29.7914943,9.67999942 C29.7914943,10.3039994 29.8406281,10.7679994 29.9552738,11.0399993 C30.0535415,11.3119993 30.2500769,11.4559993 30.5285021,11.4559993 C30.7905493,11.4559993 30.9707068,11.3279993 31.0853525,11.0399993 C31.1999981,10.7679994 31.249132,10.3039994 31.249132,9.67999942 L31.249132,7.02399958 C31.249132,6.41599962 31.1999981,5.96799964 31.0853525,5.67999966 C30.9707068,5.39199968 30.7905493,5.26399969 30.5121242,5.26399969 Z M53.6050362,5.29599968 C53.4248787,5.29599968 53.2447212,5.37599968 53.0809417,5.51999967 C52.9171622,5.67999966 52.8025165,5.87199965 52.7370047,6.09599964 L52.7370047,6.09599964 L52.7370047,10.9279993 C52.8188945,11.0719993 52.9335402,11.1839993 53.0645638,11.2639993 C53.1955874,11.3439993 53.3429889,11.3759993 53.5067685,11.3759993 C53.7033039,11.3759993 53.8670834,11.2959997 53.998107,11.1519993 C54.1127527,11.0079993 54.2110204,10.7519994 54.2601542,10.3999994 C54.3092881,10.0479994 54.342044,9.56799943 54.342044,8.94399947 L54.342044,8.94399947 L54.358422,8.94399947 L54.358422,7.82399953 C54.358422,7.16799957 54.342044,6.6559996 54.2929101,6.28799963 C54.2437763,5.93599965 54.1782645,5.67999966 54.0636188,5.51999967 C53.9653511,5.37599968 53.8015716,5.29599968 53.6050362,5.29599968 Z M7.95968456,3.88799977 L7.95968456,9.71199942 L13.1351173,6.79999959 L7.95968456,3.88799977 Z M59.3536972,5.42399968 C59.2554295,5.55199967 59.1899177,5.74399966 59.1571618,6.01599964 C59.1244059,6.28799963 59.108028,6.7039996 59.108028,7.26399957 L59.108028,7.87199953 L60.5492877,7.87199953 L60.5492877,7.26399957 C60.5492877,6.7199996 60.5329098,6.30399962 60.5001539,6.01599964 C60.467398,5.72799966 60.3855082,5.53599967 60.2872405,5.42399968 C60.1889728,5.31199968 60.0251933,5.24799969 59.8286579,5.24799969 C59.5993665,5.23199969 59.451965,5.29599968 59.3536972,5.42399968 Z" id="YouTube"></path>
                            </g>
                        </g>
                    </g>
                </g>
            </g>
        </g>
    </g>
</svg>